<svg xmlns="http://www.w3.org/2000/svg" viewBox="0 0 400 280" role="img" aria-label="Tower desktop"><defs><linearGradient id="bg" x1="0" x2="0" y1="0" y2="1"><stop offset="0" stop-color="#e8f2ff"/><stop offset="1" stop-color="#f8fbff"/></linearGradient><linearGradient id="case" x1="0" x2="1" y1="0" y2="0"><stop offset="0" stop-color="#2a3a5c"/><stop offset="1" stop-color="#162240"/></linearGradient></defs><rect width="400" height="280" fill="url(#bg)"/><rect x="150" y="50" width="100" height="200" rx="5" fill="url(#case)"/><rect x="165" y="70" width="70" height="4" rx="1" fill="#4c6fff" opacity=".8"/><rect x="165" y="80" width="70" height="4" rx="1" fill="#4c6fff" opacity=".6"/><circle cx="235" cy="105" r="3" fill="#ffd166"/><rect x="165" y="120" width="70" height="50" rx="3" fill="#0e1a36"/><g stroke="#4c6fff" stroke-width="0.8" opacity=".5"><line x1="170" y1="128" x2="230" y2="128"/><line x1="170" y1="133" x2="230" y2="133"/><line x1="170" y1="138" x2="230" y2="138"/><line x1="170" y1="143" x2="230" y2="143"/><line x1="170" y1="148" x2="230" y2="148"/><line x1="170" y1="153" x2="230" y2="153"/><line x1="170" y1="158" x2="230" y2="158"/><line x1="170" y1="163" x2="230" y2="163"/></g><rect x="175" y="185" width="50" height="8" rx="1" fill="#4c6fff" opacity=".7"/><rect x="175" y="200" width="30" height="5" rx="1" fill="#9fc3ff"/></svg>
