<svg xmlns="http://www.w3.org/2000/svg" viewBox="0 0 400 280" role="img" aria-label="Business laptop"><defs><linearGradient id="bg" x1="0" x2="0" y1="0" y2="1"><stop offset="0" stop-color="#e8f2ff"/><stop offset="1" stop-color="#f8fbff"/></linearGradient><linearGradient id="screen" x1="0" x2="0" y1="0" y2="1"><stop offset="0" stop-color="#1d2b4f"/><stop offset="1" stop-color="#263a6e"/></linearGradient></defs><rect width="400" height="280" fill="url(#bg)"/><path d="M100 80 h200 a6 6 0 0 1 6 6 v110 a6 6 0 0 1 -6 6 h-200 a6 6 0 0 1 -6 -6 v-110 a6 6 0 0 1 6 -6 z" fill="url(#screen)"/><rect x="104" y="90" width="192" height="102" rx="2" fill="#4c6fff" fill-opacity=".4"/><g stroke="#9fc3ff" stroke-width="1.5" fill="none" opacity=".8"><line x1="115" y1="110" x2="285" y2="110"/><line x1="115" y1="125" x2="250" y2="125"/><line x1="115" y1="140" x2="275" y2="140"/><line x1="115" y1="155" x2="220" y2="155"/></g><path d="M70 210 h260 l18 22 h-296 z" fill="#2a3a5c"/><rect x="180" y="210" width="40" height="4" fill="#0f1a37"/><text x="200" y="250" font-family="Inter, system-ui, sans-serif" font-size="14" fill="#1d2b4f" text-anchor="middle" font-weight="600">Business Laptop</text></svg>
