<svg xmlns="http://www.w3.org/2000/svg" viewBox="0 0 400 280" role="img" aria-label="Enterprise router"><defs><linearGradient id="bg" x1="0" x2="0" y1="0" y2="1"><stop offset="0" stop-color="#e8f2ff"/><stop offset="1" stop-color="#f8fbff"/></linearGradient><linearGradient id="rack" x1="0" x2="0" y1="0" y2="1"><stop offset="0" stop-color="#1d2b4f"/><stop offset="1" stop-color="#0f1a37"/></linearGradient></defs><rect width="400" height="280" fill="url(#bg)"/><rect x="50" y="110" width="300" height="80" rx="6" fill="url(#rack)"/><g fill="#4c6fff" fill-opacity=".9"><circle cx="75" cy="150" r="4"/><circle cx="92" cy="150" r="4"/></g><g fill="#9fc3ff"><rect x="112" y="140" width="22" height="20" rx="2"/><rect x="140" y="140" width="22" height="20" rx="2"/><rect x="168" y="140" width="22" height="20" rx="2"/><rect x="196" y="140" width="22" height="20" rx="2"/><rect x="224" y="140" width="22" height="20" rx="2"/><rect x="252" y="140" width="22" height="20" rx="2"/><rect x="280" y="140" width="22" height="20" rx="2"/><rect x="308" y="140" width="22" height="20" rx="2"/></g><g fill="#ffd166"><circle cx="75" cy="170" r="2.5"/><circle cx="92" cy="170" r="2.5"/></g><text x="200" y="240" font-family="Inter, system-ui, sans-serif" font-size="16" fill="#1d2b4f" text-anchor="middle" font-weight="600">Enterprise Router</text></svg>
