<svg xmlns="http://www.w3.org/2000/svg" viewBox="0 0 400 280" role="img" aria-label="Managed switch"><defs><linearGradient id="bg" x1="0" x2="0" y1="0" y2="1"><stop offset="0" stop-color="#e8f2ff"/><stop offset="1" stop-color="#f8fbff"/></linearGradient><linearGradient id="chassis" x1="0" x2="0" y1="0" y2="1"><stop offset="0" stop-color="#22304f"/><stop offset="1" stop-color="#0e1a36"/></linearGradient></defs><rect width="400" height="280" fill="url(#bg)"/><rect x="30" y="115" width="340" height="70" rx="5" fill="url(#chassis)"/><g fill="#9fc3ff"><rect x="45" y="135" width="10" height="12" rx="1.5"/><rect x="58" y="135" width="10" height="12" rx="1.5"/><rect x="71" y="135" width="10" height="12" rx="1.5"/><rect x="84" y="135" width="10" height="12" rx="1.5"/><rect x="97" y="135" width="10" height="12" rx="1.5"/><rect x="110" y="135" width="10" height="12" rx="1.5"/><rect x="123" y="135" width="10" height="12" rx="1.5"/><rect x="136" y="135" width="10" height="12" rx="1.5"/><rect x="152" y="135" width="10" height="12" rx="1.5"/><rect x="165" y="135" width="10" height="12" rx="1.5"/><rect x="178" y="135" width="10" height="12" rx="1.5"/><rect x="191" y="135" width="10" height="12" rx="1.5"/><rect x="204" y="135" width="10" height="12" rx="1.5"/><rect x="217" y="135" width="10" height="12" rx="1.5"/><rect x="230" y="135" width="10" height="12" rx="1.5"/><rect x="243" y="135" width="10" height="12" rx="1.5"/><rect x="45" y="155" width="10" height="12" rx="1.5"/><rect x="58" y="155" width="10" height="12" rx="1.5"/><rect x="71" y="155" width="10" height="12" rx="1.5"/><rect x="84" y="155" width="10" height="12" rx="1.5"/><rect x="97" y="155" width="10" height="12" rx="1.5"/><rect x="110" y="155" width="10" height="12" rx="1.5"/><rect x="123" y="155" width="10" height="12" rx="1.5"/><rect x="136" y="155" width="10" height="12" rx="1.5"/><rect x="152" y="155" width="10" height="12" rx="1.5"/><rect x="165" y="155" width="10" height="12" rx="1.5"/><rect x="178" y="155" width="10" height="12" rx="1.5"/><rect x="191" y="155" width="10" height="12" rx="1.5"/><rect x="204" y="155" width="10" height="12" rx="1.5"/><rect x="217" y="155" width="10" height="12" rx="1.5"/><rect x="230" y="155" width="10" height="12" rx="1.5"/><rect x="243" y="155" width="10" height="12" rx="1.5"/></g><g fill="#4c6fff"><rect x="270" y="140" width="28" height="20" rx="2"/><rect x="302" y="140" width="28" height="20" rx="2"/><rect x="334" y="140" width="28" height="20" rx="2"/></g><text x="200" y="240" font-family="Inter, system-ui, sans-serif" font-size="16" fill="#1d2b4f" text-anchor="middle" font-weight="600">Managed Switch</text></svg>
